<svg width="17" height="17" viewBox="0 0 17 17" fill="none" xmlns="http://www.w3.org/2000/svg">
<rect x="16.908" y="17" width="16" height="16.1308" rx="8" transform="rotate(-180 16.908 17)" fill="#FF5B5B" fill-opacity="0.15"/>
<g clip-path="url(#clip0_1_584)">
<path d="M6.92815 9.74445L8.5752 11.405C8.66345 11.4939 8.78313 11.5439 8.90791 11.5439C9.03269 11.5439 9.15237 11.4939 9.24062 11.405L10.8877 9.74445C10.9734 9.65497 11.0208 9.53513 11.0198 9.41074C11.0187 9.28634 10.9692 9.16735 10.8819 9.07938C10.7947 8.99142 10.6767 8.94152 10.5533 8.94044C10.4299 8.93936 10.311 8.98718 10.2223 9.0736L9.3785 9.92426L9.3785 6.79964C9.3785 6.67381 9.32892 6.55313 9.24067 6.46416C9.15241 6.37519 9.03272 6.3252 8.90791 6.3252C8.7831 6.3252 8.66341 6.37519 8.57515 6.46416C8.4869 6.55313 8.43732 6.67381 8.43732 6.79964L8.43732 9.92426L7.59356 9.0736C7.5048 8.98718 7.38593 8.93936 7.26255 8.94044C7.13916 8.94152 7.02113 8.99142 6.93388 9.07938C6.84663 9.16735 6.79714 9.28634 6.79606 9.41074C6.79499 9.53513 6.84242 9.65497 6.92815 9.74445V9.74445Z" fill="#FF5B5B"/>
</g>
<defs>
<clipPath id="clip0_1_584">
<rect width="5.64706" height="5.69322" fill="white" transform="translate(11.7315 11.7812) rotate(-180)"/>
</clipPath>
</defs>
</svg>
