<svg width="85" height="85" viewBox="0 0 85 85" fill="none" xmlns="http://www.w3.org/2000/svg">
<ellipse cx="42.1554" cy="42.5" rx="42.1554" ry="42.5" fill="#00B074" fill-opacity="0.15"/>
<path d="M41.7136 23.9521C41.1199 23.9521 40.6534 23.4818 40.6534 22.8832V20.1896C40.6534 17.2822 38.3209 14.9306 35.4795 14.9306C34.08 14.9306 32.8077 15.4865 31.7899 16.4698C30.7721 17.4532 30.2632 18.7786 30.2632 20.1896V22.8832C30.2632 23.4818 29.7967 23.9521 29.2029 23.9521C28.6092 23.9521 28.1427 23.4818 28.1427 22.8832V20.1896C28.1427 18.2228 28.9061 16.3843 30.2632 14.9734C31.6626 13.5624 33.4862 12.7928 35.437 12.7928C39.4659 12.7928 42.7314 16.085 42.7314 20.1468V22.8404C42.7738 23.4818 42.3073 23.9521 41.7136 23.9521Z" fill="#FFD497"/>
<path d="M58.3802 59.9952H27.464L22.3325 20.0614H56.2173L58.3802 59.9952Z" fill="#00B074"/>
<path d="M27.4639 59.9952L20.1271 58.7125L12.7479 59.9952L14.9532 20.0614H25.2586L27.4639 59.9952Z" fill="#0A5239"/>
<path d="M40.9076 33.8287C36.8787 33.8287 33.6132 30.5365 33.6132 26.4747V23.7811C33.6132 23.1825 34.0797 22.7122 34.6734 22.7122C35.2672 22.7122 35.7337 23.1825 35.7337 23.7811V26.4747C35.7337 29.3821 38.0662 31.6909 40.9076 31.6909C43.749 31.6909 46.1239 29.3393 46.1239 26.4319V23.7383C46.1239 23.1397 46.5904 22.6694 47.1841 22.6694C47.7778 22.6694 48.2443 23.1397 48.2443 23.7383V26.4319C48.2443 30.5365 44.9788 33.8287 40.9076 33.8287Z" fill="white"/>
<path opacity="0.1" d="M42.8162 54.5224C42.8162 56.4892 43.3251 58.3704 44.2157 59.9952H58.4227L57.5322 43.577C56.4719 43.2349 55.3693 43.0639 54.2242 43.0639C47.9053 43.0639 42.8162 48.1946 42.8162 54.5224Z" fill="#0C1E5B"/>
<path d="M60.119 65.9809C66.396 65.9809 71.4846 60.8508 71.4846 54.5224C71.4846 48.1941 66.396 43.0639 60.119 43.0639C53.8419 43.0639 48.7534 48.1941 48.7534 54.5224C48.7534 60.8508 53.8419 65.9809 60.119 65.9809Z" fill="#FF6966"/>
<path d="M58.9314 58.9691C58.5922 58.9691 58.2953 58.8409 58.0408 58.5843L54.4361 54.9501C53.9272 54.437 53.9272 53.6247 54.4361 53.1544C54.945 52.6413 55.7507 52.6413 56.2172 53.1544L58.9314 55.8907L64.0205 50.76C64.5294 50.247 65.3352 50.247 65.8017 50.76C66.3106 51.2731 66.3106 52.0855 65.8017 52.5558L59.822 58.5843C59.5676 58.8409 59.2283 58.9691 58.9314 58.9691Z" fill="white"/>
</svg>
