<svg width="17" height="17" viewBox="0 0 17 17" fill="none" xmlns="http://www.w3.org/2000/svg">
<rect x="16.3729" y="17" width="16" height="16.1308" rx="8" transform="rotate(-180 16.3729 17)" fill="#2ED6A3" fill-opacity="0.15"/>
<g clip-path="url(#clip0_1_531)">
<path d="M6.39305 8.7956C6.4813 8.88455 6.60097 8.93451 6.72576 8.93451C6.85054 8.93451 6.97021 8.88455 7.05846 8.7956L7.90223 7.94494L7.90223 11.0696C7.90223 11.1954 7.95181 11.3161 8.04006 11.405C8.12831 11.494 8.24801 11.544 8.37282 11.544C8.49762 11.544 8.61732 11.494 8.70557 11.405C8.79382 11.3161 8.8434 11.1954 8.8434 11.0696L8.8434 7.94494L9.68717 8.7956C9.77592 8.88203 9.89479 8.92985 10.0182 8.92877C10.1416 8.92768 10.2596 8.87779 10.3468 8.78982C10.4341 8.70186 10.4836 8.58287 10.4847 8.45847C10.4857 8.33408 10.4383 8.21423 10.3526 8.12475L8.70552 6.46423C8.61727 6.37529 8.4976 6.32532 8.37282 6.32532C8.24803 6.32532 8.12836 6.37529 8.04011 6.46423L6.39305 8.12475C6.30483 8.21372 6.25527 8.33438 6.25527 8.46018C6.25527 8.58598 6.30483 8.70663 6.39305 8.7956Z" fill="#00A389"/>
</g>
<defs>
<clipPath id="clip0_1_531">
<rect width="5.64706" height="5.69322" fill="white" transform="translate(11.1964 11.7812) rotate(-180)"/>
</clipPath>
</defs>
</svg>
